HIERARCHY
ROOT Hips
{
	OFFSET 0.00000 0.00000 0.00000
	CHANNELS 6 Xposition Yposition Zposition Zrotation Yrotation Xrotation 
	JOINT LHipJoint
	{
		OFFSET 0 0 0
		CHANNELS 3 Zrotation Yrotation Xrotation
		JOINT LeftHip
		{
			OFFSET 1.38280 -1.96574 0.54427
			CHANNELS 3 Zrotation Yrotation Xrotation
			JOINT LeftKnee
			{
				OFFSET 2.72096 -7.47578 0.00000
				CHANNELS 3 Zrotation Yrotation Xrotation
				JOINT LeftAnkle
				{
					OFFSET 2.73041 -7.50176 0.00000
					CHANNELS 3 Zrotation Yrotation Xrotation
					JOINT LeftToe
					{
						OFFSET 0.16150 -0.44371 2.18031
						CHANNELS 3 Zrotation Yrotation Xrotation
						End Site
						{
							OFFSET 0.00000 -0.00000 1.12127
						}
					}
				}
			}
		}
	}
	JOINT RHipJoint
	{
		OFFSET 0 0 0
		CHANNELS 3 Zrotation Yrotation Xrotation
		JOINT RightHip
		{
			OFFSET -1.57224 -1.96575 0.54427
			CHANNELS 3 Zrotation Yrotation Xrotation
			JOINT RightKnee
			{
				OFFSET -2.95935 -8.13076 0.00000
				CHANNELS 3 Zrotation Yrotation Xrotation
				JOINT RightAnkle
				{
					OFFSET -2.52345 -6.93311 0.00000
					CHANNELS 3 Zrotation Yrotation Xrotation
					JOINT RightToe
					{
						OFFSET -0.04475 -0.10171 1.86688
						CHANNELS 3 Zrotation Yrotation Xrotation
						End Site
						{
							OFFSET -0.00000 -0.00000 0.95157
						}
					}
				}
			}
		}
	}
	JOINT lowerback
	{
		OFFSET 0 0 0
		CHANNELS 3 Zrotation Yrotation Xrotation
		JOINT Chest
		{
			OFFSET 0.00669 2.07367 0.09104
			CHANNELS 3 Zrotation Yrotation Xrotation
			JOINT Chest2
			{
				OFFSET -0.00664 2.06198 -0.04732
				CHANNELS 3 Zrotation Yrotation Xrotation
				JOINT lowerneck
				{
					OFFSET 0 0 0
					CHANNELS 3 Zrotation Yrotation Xrotation
					JOINT Neck
					{
						OFFSET -0.00021 1.49948 0.16345
						CHANNELS 3 Zrotation Yrotation Xrotation
						JOINT Head
						{
							OFFSET 0.06080 1.50567 -0.26702
							CHANNELS 3 Zrotation Yrotation Xrotation
							End Site
							{
								OFFSET 0.01726 1.56470 -0.11854
							}
						}
					}
				}
				JOINT LeftCollar
				{
					OFFSET 0 0 0
					CHANNELS 3 Zrotation Yrotation Xrotation
					JOINT LeftShoulder
					{
						OFFSET 3.14993 0.82932 -0.22488
CHANNELS 3 Zrotation Xrotation Yrotation
						JOINT LeftElbow
						{
OFFSET 0 -5.682360 -0.000000
CHANNELS 3 Zrotation Xrotation Yrotation
							JOINT LeftWrist
							{
OFFSET 0 -3.171120 0.000000
CHANNELS 3 Zrotation Xrotation Yrotation
								JOINT lhand
								{
									OFFSET 0 0 0
CHANNELS 3 Zrotation Xrotation Yrotation
									JOINT LFingers
									{
OFFSET 0 -0.632690 0.000000
CHANNELS 3 Zrotation Xrotation Yrotation
										End Site
										{
OFFSET 0 -0.510090 0.000000
										}
									}
								}
								JOINT LThumb
								{
OFFSET 0 0.000000 0.000000
CHANNELS 3 Zrotation Xrotation Yrotation
									End Site
									{
OFFSET 0 -0.517880 0.517880
									}
								}
							}
						}
					}
				}
				JOINT RightCollar
				{
					OFFSET 0 0 0
					CHANNELS 3 Zrotation Yrotation Xrotation
					JOINT RightShoulder
					{
						OFFSET -3.10571 0.91279 -0.33334
CHANNELS 3 Zrotation Xrotation Yrotation
						JOINT RightElbow
						{
OFFSET 0 -5.871200 -0.000000
CHANNELS 3 Zrotation Xrotation Yrotation
							JOINT RightWrist
							{
OFFSET 0 -3.375890 0.000000
CHANNELS 3 Zrotation Xrotation Yrotation
								JOINT rhand
								{
									OFFSET 0 0 0
CHANNELS 3 Zrotation Xrotation Yrotation
									JOINT RFingers
									{
OFFSET 0 -0.603260 0.000000
CHANNELS 3 Zrotation Xrotation Yrotation
										End Site
										{
OFFSET 0 -0.486360 0.000000
										}
									}
								}
								JOINT RThumb
								{
OFFSET 0 0.000000 0.000000
CHANNELS 3 Zrotation Xrotation Yrotation
									End Site
									{
OFFSET 0 -0.493790 0.493790
									}
								}
							}
						}
					}
				}
			}
		}
	}
}
MOTION
Frames: 7
Frame Time: .0083333
7.5149 18.2522 -3.3654 178.5590 -84.3141 -167.8390 0.0000 0.0000 0.0000 -16.8813 -7.9319 -25.2569 7.2655 15.5515 49.8716 0.9498 -3.2523 -17.6125 2.0785 -9.0278 -25.8823 0.0000 0.0000 0.0000 21.6526 11.4126 -17.3698 -2.9114 -10.5503 30.7777 0.5207 12.6647 4.3998 -6.2144 -14.6329 45.8363 1.4395 -0.0348 -7.0626 2.5896 -0.3710 2.1331 1.8488 -0.1961 6.2048 -0.7391 0.7632 -19.4357 -1.7967 1.6040 19.3397 -0.2874 0.4478 9.3147 0.0000 -0.0000 0.0000 3.7418 2.893 -31.8456 18.8678 -29.2541 4.9661 18.263 -6.8422 -34.6455 0.0 0.0 0.0 -7.1250 0.0 0.0 -19.0509 65.0642 9.4007 0.0000 -0.0000 0.0000 -1.8343 -3.3816 2.5872 -15.3562 -24.64 -3.3731 -27.1429 7.2063 -27.9311 0.0 0.0 0.0 7.1250 0.0 -0.0 1.9086 -0.7908 1.9358
7.4847 18.2504 -3.3935 177.8010 -84.3761 -167.0920 0.0000 0.0000 0.0000 -16.7932 -8.0716 -26.0948 7.5813 15.8025 51.0401 0.9793 -2.8604 -17.9607 2.0194 -8.9065 -25.5031 0.0000 0.0000 0.0000 21.6959 11.4074 -17.1978 -2.8991 -10.5299 30.7102 0.5284 12.7592 4.3308 -6.2446 -14.6612 45.9555 1.5449 0.0613 -7.0811 2.5406 -0.2504 2.1534 1.7533 -0.1313 6.2335 -0.6724 0.6923 -19.5982 -1.6931 1.4671 19.6078 -0.2812 0.3962 9.4361 0.0000 0.0000 0.0000 3.7814 2.8908 -32.1533 18.8934 -29.286 4.9786 18.0683 -6.9798 -34.4881 0.0 0.0 0.0 -7.1250 0.0 0.0 -19.1177 64.8634 9.346 0.0000 0.0000 0.0000 -1.5826 -3.8504 3.9536 -15.3668 -24.6546 -3.3775 -27.2384 7.0668 -28.117 0.0 0.0 0.0 7.1250 0.0 -0.0 1.8826 -1.0102 1.9165
7.4537 18.2524 -3.4185 177.4220 -84.3062 -166.7000 0.0000 0.0000 0.0000 -16.7050 -8.1496 -26.9481 7.8632 16.0177 52.0684 1.0145 -2.2958 -18.4053 1.9881 -8.8413 -25.3001 0.0000 0.0000 0.0000 21.7419 11.4045 -17.0476 -2.8838 -10.5045 30.6264 0.5296 12.7718 4.3716 -6.2540 -14.6701 45.9930 1.6212 0.1653 -7.1310 2.5485 -0.1219 2.1643 1.7351 -0.0655 6.2711 -0.6042 0.6700 -19.5908 -1.6993 1.4169 19.7316 -0.3018 0.3751 9.4783 0.0000 -0.0000 0.0000 3.6923 2.9089 -32.3744 18.9020 -29.2968 4.9828 17.93 -7.0658 -34.306 0.0 0.0 0.0 -7.1250 0.0 0.0 -19.0968 64.6557 9.2435 0.0000 -0.0000 0.0000 -1.4903 -4.3087 5.5501 -15.3810 -24.6742 -3.3834 -27.2698 6.9363 -28.1723 0.0 0.0 0.0 7.1250 0.0 -0.0 1.8731 -1.0761 1.9089
7.4225 18.2547 -3.4428 176.8950 -84.2008 -166.1420 0.0000 0.0000 0.0000 -16.6406 -8.2385 -27.8405 8.1340 16.2169 53.0439 1.0531 -1.6509 -18.9149 1.9673 -8.7976 -25.1643 0.0000 0.0000 0.0000 21.7554 11.4059 -16.9304 -2.8717 -10.4844 30.5601 0.5325 12.8056 4.4277 -6.2498 -14.6662 45.9764 1.6838 0.2807 -7.1664 2.5375 0.0260 2.1510 1.7069 0.0099 6.2747 -0.5250 0.6437 -19.5551 -1.6985 1.3552 19.8771 -0.3236 0.3501 9.5228 -0.0000 0.0000 0.0000 3.6099 2.9581 -32.5592 18.9136 -29.3112 4.9885 17.8383 -7.1004 -34.2072 0.0 0.0 0.0 -7.1250 0.0 0.0 -19.1050 64.5384 9.1956 -0.0000 0.0000 0.0000 -1.4172 -4.6972 7.266 -15.4579 -24.7801 -3.4156 -27.2434 6.7855 -28.198 0.0 0.0 0.0 7.1250 0.0 -0.0 1.8927 -1.0971 1.9296
7.3909 18.2553 -3.4672 176.3380 -84.1165 -165.5630 0.0000 0.0000 0.0000 -16.5808 -8.3384 -28.6973 8.3811 16.3925 53.9240 1.0877 -1.0437 -19.3960 1.8941 -8.6420 -24.6816 0.0000 0.0000 0.0000 21.7712 11.4234 -16.7961 -2.8613 -10.4671 30.5029 0.5390 12.8815 4.4422 -6.2453 -14.6619 45.9583 1.7406 0.3930 -7.1871 2.5223 0.1713 2.1345 1.6772 0.0840 6.2668 -0.4621 0.6080 -19.5217 -1.6693 1.2784 20.0382 -0.3350 0.3199 9.5729 0.0000 -0.0000 0.0000 3.5307 3.0175 -32.7306 18.9352 -29.3381 4.9991 17.7485 -7.1225 -34.171 0.0 0.0 0.0 -7.1250 0.0 0.0 -19.1722 64.48 9.2032 0.0000 -0.0000 0.0000 -1.3552 -5.0563 8.993 -15.5715 -24.9361 -3.4633 -27.2087 6.6423 -28.2731 0.0 0.0 0.0 7.1250 0.0 -0.0 1.9252 -1.1684 1.9652
7.3587 18.2543 -3.4920 175.7200 -84.0658 -164.9390 0.0000 0.0000 0.0000 -16.5265 -8.4636 -29.5178 8.6014 16.5443 54.7011 1.1186 -0.5119 -19.8351 1.7791 -8.3899 -23.9047 0.0000 0.0000 0.0000 21.7907 11.4639 -16.6366 -2.8544 -10.4555 30.4646 0.5510 13.0236 4.4008 -6.2391 -14.6561 45.9340 1.7838 0.4972 -7.1821 2.5041 0.3085 2.1140 1.6507 0.1536 6.2404 -0.4196 0.5620 -19.5095 -1.6053 1.1854 20.2370 -0.3333 0.2842 9.6396 0.0000 -0.0000 0.0000 3.4511 3.092 -32.8853 18.9750 -29.3876 5.0186 17.6559 -7.1266 -34.2281 0.0 0.0 0.0 -7.1250 0.0 0.0 -19.3328 64.5078 9.2955 0.0000 -0.0000 0.0000 -1.3133 -5.3807 10.7326 -15.7311 -25.1547 -3.5309 -27.1647 6.5138 -28.4048 0.0 0.0 0.0 7.1250 0.0 -0.0 1.9722 -1.2973 2.0176
7.3256 18.2521 -3.5174 174.9960 -84.0672 -164.2340 0.0000 0.0000 0.0000 -16.4767 -8.6222 -30.2852 8.7930 16.6727 55.3716 1.1419 -0.1070 -20.1748 1.6355 -8.0615 -22.9011 0.0000 0.0000 0.0000 21.8190 11.5219 -16.4312 -2.8484 -10.4455 30.4319 0.5683 13.2271 4.2931 -6.2344 -14.6517 45.9153 1.8044 0.5815 -7.1504 2.4889 0.4218 2.0977 1.6365 0.2106 6.2036 -0.4012 0.5102 -19.5321 -1.5123 1.0846 20.4698 -0.3186 0.2460 9.7246 -0.0000 0.0000 0.0000 3.367 3.1775 -33.0289 19.0346 -29.4616 5.0478 17.5502 -7.1214 -34.3718 0.0 0.0 0.0 -7.1250 0.0 0.0 -19.5941 64.6125 9.4734 -0.0000 0.0000 0.0000 -1.3009 -5.6878 12.4841 -15.9271 -25.4217 -3.6146 -27.136 6.383 -28.6005 0.0 0.0 0.0 7.1250 0.0 -0.0 2.0209 -1.4973 2.0743
